<svg xmlns="http://www.w3.org/2000/svg" viewBox="0 0 633.64 180.58"><defs><style>.cls-1{font-size:58.56px;font-family:AgencyFB-Reg, Agency FB;}.cls-1,.cls-2{fill:#fff;}.cls-3{fill:#4865d4;}.cls-4{fill:#142049;}</style></defs><title>Asset 2</title><g id="Layer_2" data-name="Layer 2"><g id="Layer_1-2" data-name="Layer 1"><text class="cls-1" transform="translate(50.6 171.33) scale(1 0.6)">MINSATUK</text><path class="cls-2" d="M633.64,32.66V147.92A32.65,32.65,0,0,1,601,180.58H485.72c-.64,0-1.27,0-1.9-.06a32.14,32.14,0,0,1-9.08-1.84,32.66,32.66,0,0,1-21.68-30.76V32.66A32.66,32.66,0,0,1,485.72,0H601A32.65,32.65,0,0,1,633.64,32.66Z"/><path class="cls-3" d="M545.86,26.32l-36,7.52V93.37l-20.68,5c-8.46,2.19-14.41,9.4-14.41,17.85v62.45a32.14,32.14,0,0,0,9.08,1.84v-7a18.14,18.14,0,0,1,14.42-17.86L612,130.65V79.89A54.59,54.59,0,0,0,545.86,26.32Zm51.69,48.56L518.6,91.17V78.32l78.95-16.6Z"/><path class="cls-2" d="M9.27,100.78H33.74v27.91H9.27L0,123.53V105.94Z"/><path class="cls-2" d="M72.47,80.94c10.67,13.12,20.69,19.84,34.5,19.84v27.91c-13.23,0-29.57-9.21-40.23-25.76-3.11,18-15.39,25.73-34.11,25.73v0l-9.27-5.16V105.94l9.27-5.16c16.5,0,25.59-3.22,25.59-8,0-5.89-8.83-18.42-27.29-38.36L41.17,27,103.27,0l.37.35L101.11,21,42.73,45.11C55.4,58.81,66,73,72.46,80.94Z"/><path class="cls-2" d="M139.33,90.32c1.84,6.47,9.2,10.46,22.29,10.46v27.91c-12.12,0-23.35-7.14-27.43-19-3.71,11.12-14,18.94-27.12,19H107v0l-9.49-5.12V105.91l9.55-5.16v0c19.28,0,28.59-6,30.49-27.08h2.86c-.16,5.72-.47,10.17-1.09,16.61Z"/><path class="cls-2" d="M281,100.34c6.61.78,13.78.44,18.58.44V128.7c-15.12,0-23.68-4.31-28.77-10.94-9.07,7.74-23.32,10.94-41.82,10.94-18,0-35.64-4.45-40.83-16.87-3.34,7.23-8.71,16.86-26.68,16.87h0l-9.25-5.16V105.91l9.27-5.18v.06c9.54,0,29.22.32,31.15-19.92h2.1c-.55,4.45-.83,10.18-2.71,16.41a72.63,72.63,0,0,0,9.86,3.5c13-19.92,34.18-49,54.39-49,18.35,0,25.9,20.22,25.9,37.28A50.87,50.87,0,0,1,281,100.34Zm-76.57,1.29c29.34,5.68,74.18,1.05,74.18-7.3,0-9.27-11.86-17.72-25-17.72-7.79,0-31.41,3.61-49.2,25Z"/><path class="cls-2" d="M332,90.31c1.84,6.48,9.2,10.47,22.29,10.47v27.91c-12.12,0-23.35-7.14-27.43-19-3.72,11.11-13.95,18.94-27.12,19h-.06v0l-9.49-5.12V105.91l9.55-5.16v0c19.28,0,28.59-6,30.49-27.09h2.86c-.16,5.73-.47,10.18-1.09,16.62Z"/><path class="cls-2" d="M416.91,57.69c14.39,0,21,16,21,32.83,0,18.59-8.11,38.17-22.83,38.17-17.79,0-31.94-12.8-34.48-22.13-4.9,13.22-12,22.13-26.33,22.13L345,123.53V105.94l9.27-5.16c15.28,0,22.4-3.51,28.74-13.55,12.21-19.36,22.46-29.54,33.88-29.54ZM388.52,90.32c12,10.46,45,17.15,44.7,11.3-1.6-13.13-10.4-21.25-21.33-21.25-7.2,0-15.76,3.29-23.37,9.95Z"/><path class="cls-4" d="M325.85,51.33c-4.21,2.44-8.7,4.07-11.78,7.13S309.55,65.88,307.2,70c-2-9.77-8-15.86-18.21-18.18,10.38-2.13,16.18-8.38,18.71-18.3C310.06,43.57,316,49.42,325.85,51.33Z"/><path class="cls-4" d="M154.46,51.33c-4.21,2.44-8.7,4.07-11.77,7.13s-4.53,7.42-6.87,11.52c-2-9.77-8-15.86-18.21-18.18,10.37-2.13,16.17-8.38,18.7-18.3C138.67,43.57,144.6,49.42,154.46,51.33Z"/><path class="cls-4" d="M124.43,51.33c-4.2,2.44-8.7,4.07-11.77,7.13s-4.53,7.42-6.87,11.52c-2-9.77-8-15.86-18.21-18.18,10.37-2.13,16.18-8.38,18.7-18.3C108.64,43.57,114.57,49.42,124.43,51.33Z"/></g></g></svg>